<svg width="512" height="512" xmlns="http://www.w3.org/2000/svg" xmlns:svg="http://www.w3.org/2000/svg">
 <defs>
  <linearGradient id="g1" x1="0.11" x2="0.95" y1="0.03" y2="0.99">
   <stop offset="0" stop-color="#7230E0"/>
   <stop offset="0.3" stop-color="#6040EA"/>
   <stop offset="0.6" stop-color="#4860F0"/>
   <stop offset="1" stop-color="#08DBC5"/>
  </linearGradient>
  <linearGradient id="g2" x1="0.12" x2="0.98" y1="-0.05" y2="0.91">
   <stop offset="0" stop-color="#6030E2"/>
   <stop offset="0.4" stop-color="#4C55EC"/>
   <stop offset="0.75" stop-color="#2A90E8"/>
   <stop offset="1" stop-color="#0CC8C0"/>
  </linearGradient>
  <clipPath id="c1">
   <circle cx="256" cy="256" id="svg_1" r="228"/>
  </clipPath>
 </defs>
 <g class="layer">
  <title>Layer 1</title>
  <rect fill="#303040" height="512" id="svg_2" width="512"/>
  <circle cx="256" cy="256" fill="url(#g1)" id="svg_3" r="228"/>
  <g clip-path="url(#c1)" id="svg_4">
   <path d="m88,205q-6,-100 30,-153q17,-24 40,-20q22,4 34,33q20,45 13,120q-5,25 -30,33q-35,7 -75,-3l-12,-10z" fill="white" id="svg_5"/>
   <path d="m424,205q6,-100 -30,-153q-17,-24 -40,-20q-22,4 -34,33q-20,45 -13,120q5,25 30,33q35,7 75,-3l12,-10z" fill="white" id="svg_6"/>
   <path d="m155,215q15,-50 50,-75q25,-15 51,-20q26,5 51,20q35,25 50,75q-37,-20 -101,-25q-64,5 -101,25z" fill="white" id="svg_7"/>
   <path d="m48,295q-10,-47 20,-87q32,-36 80,-36q37,2 62,23q22,20 25,53q5,47 -15,107q-20,55 -32,95q-8,30 -10,80l156,0q-2,-50 -10,-80q-12,-40 -32,-95q-20,-60 -15,-107q3,-33 25,-53q25,-21 62,-23q48,0 80,36q30,40 20,87q8,65 -6,130q-10,50 -13,105l-378,0q-3,-55 -13,-105q-14,-65 -6,-130z" fill="white" id="svg_8"/>
   <path d="m78,310q-8,-45 18,-78q29,-32 72,-34q32,0 54,20q18,18 18,47q2,50 -18,110q-17,47 -27,85q-7,30 -9,70l140,0q-2,-40 -9,-70q-10,-38 -27,-85q-20,-60 -18,-110q0,-29 18,-47q22,-20 54,-20q43,2 72,34q26,33 18,78q6,60 -6,120q-10,48 -13,100l-318,0q-3,-52 -13,-100q-12,-60 -6,-120z" fill="url(#g2)" id="svg_9"/>
   <rect fill="white" height="62" id="svg_10" rx="15" ry="15" transform="rotate(-15, 207, 349)" width="30" x="192" y="318"/>
   <rect fill="white" height="62" id="svg_11" rx="15" ry="15" transform="rotate(10, 305, 344)" width="30" x="290" y="313"/>
  </g>
 </g>
</svg>