<svg width="1500" height="950" xmlns="http://www.w3.org/2000/svg" xmlns:svg="http://www.w3.org/2000/svg">
 <!-- Created with SVG-edit - https://github.com/SVG-Edit/svgedit-->
 <g class="layer">
  <title>Layer 1</title>
  <undefined fill="#c44" height="26" id="d1c1" rx="3" stroke="#a33" stroke-width="0.8" width="40" x="92" y="176"/>
  <undefined fill="#fff" font-family="Arial" font-size="8" font-weight="bold" id="d1c1t" text-anchor="middle" x="112" y="193"/>
  <undefined fill="#c44" height="26" id="d1c2" rx="3" stroke="#a33" stroke-width="0.8" width="40" x="135" y="176"/>
  <undefined fill="#fff" font-family="Arial" font-size="8" font-weight="bold" id="d1c2t" text-anchor="middle" x="155" y="193"/>
  <undefined fill="#c44" height="26" id="d1c3" rx="3" stroke="#a33" stroke-width="0.8" width="40" x="178" y="176"/>
  <undefined fill="#fff" font-family="Arial" font-size="8" font-weight="bold" id="d1c3t" text-anchor="middle" x="198" y="193"/>
  <undefined fill="#c44" height="26" id="d1c4" rx="3" stroke="#a33" stroke-width="0.8" width="40" x="221" y="176"/>
  <undefined fill="#fff" font-family="Arial" font-size="8" font-weight="bold" id="d1c4t" text-anchor="middle" x="241" y="193"/>
  <undefined fill="#c44" height="26" id="d1c5" rx="3" stroke="#a33" stroke-width="0.8" width="40" x="92" y="204"/>
  <undefined fill="#fff" font-family="Arial" font-size="8" font-weight="bold" id="d1c5t" text-anchor="middle" x="112" y="221"/>
  <undefined fill="#c44" height="26" id="d1c6" rx="3" stroke="#a33" stroke-width="0.8" width="40" x="135" y="204"/>
  <undefined fill="#fff" font-family="Arial" font-size="8" font-weight="bold" id="d1c6t" text-anchor="middle" x="155" y="221"/>
  <undefined fill="#c44" height="26" id="d1c7" rx="3" stroke="#a33" stroke-width="0.8" width="40" x="178" y="204"/>
  <undefined fill="#fff" font-family="Arial" font-size="8" font-weight="bold" id="d1c7t" text-anchor="middle" x="198" y="221"/>
  <undefined fill="#c44" height="26" id="d1c8" rx="3" stroke="#a33" stroke-width="0.8" width="40" x="221" y="204"/>
  <undefined fill="#fff" font-family="Arial" font-size="8" font-weight="bold" id="d1c8t" text-anchor="middle" x="241" y="221"/>
  <undefined fill="#e8e0d6" height="36" id="d1l3a" rx="3" stroke="#b0a090" width="86" x="92" y="233"/>
  <undefined fill="#444" font-family="Arial" font-size="11" font-weight="bold" id="d1l3at1" text-anchor="middle" x="135" y="249"/>
  <undefined fill="#666" font-family="Arial" font-size="8" id="d1l3at2" text-anchor="middle" x="135" y="263"/>
  <undefined fill="#e8e0d6" height="36" id="d1l3b" rx="3" stroke="#b0a090" width="86" x="181" y="233"/>
  <undefined fill="#444" font-family="Arial" font-size="11" font-weight="bold" id="d1l3bt1" text-anchor="middle" x="224" y="249"/>
  <undefined fill="#666" font-family="Arial" font-size="8" id="d1l3bt2" text-anchor="middle" x="224" y="263"/>
 </g>
</svg>