<svg width="1500" height="950" xmlns="http://www.w3.org/2000/svg" xmlns:svg="http://www.w3.org/2000/svg">
 <defs>
  <linearGradient id="chip-bg" x1="0" x2="0" y1="0" y2="1">
   <stop offset="0%" stop-color="#e8e0d8"/>
   <stop offset="100%" stop-color="#d5ccc2"/>
  </linearGradient>
 </defs>
 <g class="layer">
  <title>Layer 1</title>
  <rect fill="#ffffff" height="750" id="svg_1" width="1400" x="0" y="0"/>
  <text fill="#1a1a1a" font-family="Microsoft YaHei, SimHei, Arial, sans-serif" font-size="26" font-weight="bold" id="svg_2" x="30" y="42">C86-4G升级版的Chiplet架构</text>
  <rect fill="url(#chip-bg)" height="520" id="svg_3" rx="8" stroke="#a09080" stroke-width="2" width="430" x="30" y="65"/>
  <rect fill="#d4c8ba" height="22" id="svg_4" rx="3" stroke="#a09585" width="90" x="50" y="78"/>
  <text fill="#333" font-family="Arial" font-size="10" font-weight="bold" id="svg_5" text-anchor="middle" x="95" y="94">PCIe 5.0</text>
  <rect fill="#c4b8aa" height="22" id="svg_6" rx="3" stroke="#a09585" width="55" x="155" y="78"/>
  <text fill="#333" font-family="Arial" font-size="10" font-weight="bold" id="svg_7" text-anchor="middle" x="182" y="94">IOD1</text>
  <rect fill="#c4b8aa" height="22" id="svg_8" rx="3" stroke="#a09585" width="55" x="225" y="78"/>
  <text fill="#333" font-family="Arial" font-size="10" font-weight="bold" id="svg_9" text-anchor="middle" x="252" y="94">xHCL 3</text>
  <rect fill="#d4c8ba" height="20" id="svg_10" rx="3" stroke="#a09585" width="55" x="50" y="106"/>
  <text fill="#333" font-family="Arial" font-size="9" font-weight="bold" id="svg_11" text-anchor="middle" x="77" y="120">CXL 2.0</text>
  <rect fill="#c4b8aa" height="20" id="svg_12" rx="3" stroke="#a09585" width="45" x="120" y="106"/>
  <text fill="#333" font-family="Arial" font-size="9" font-weight="bold" id="svg_13" text-anchor="middle" x="142" y="120">CCP</text>
  <rect fill="#8a8a8a" height="55" id="svg_14" rx="2" stroke="#666" stroke-width="0.5" width="14" x="45" y="140"/>
  <rect fill="#8a8a8a" height="55" id="svg_15" rx="2" stroke="#666" stroke-width="0.5" width="14" x="65" y="140"/>
  <rect fill="#8a8a8a" height="55" id="svg_16" rx="2" stroke="#666" stroke-width="0.5" width="14" x="85" y="140"/>
  <rect fill="#8a8a8a" height="55" id="svg_17" rx="2" stroke="#666" stroke-width="0.5" width="14" x="105" y="140"/>
  <text fill="#666" font-family="Arial" font-size="8" id="svg_18" x="42" y="138">DDR5</text>
  <rect fill="#d4c8ba" height="18" id="svg_19" rx="3" stroke="#a09585" stroke-width="0.8" width="45" x="135" y="140"/>
  <text fill="#555" font-family="Arial" font-size="8" id="svg_20" text-anchor="middle" x="157" y="153">HCL</text>
  <rect fill="#d4c8ba" height="18" id="svg_21" rx="3" stroke="#a09585" stroke-width="0.8" width="45" x="195" y="140"/>
  <text fill="#555" font-family="Arial" font-size="8" id="svg_22" text-anchor="middle" x="217" y="153">HCL</text>
  <rect fill="#d9cfc3" height="125" id="svg_23" rx="5" stroke="#b0a090" stroke-width="1.2" width="190" x="70" y="205"/>
  <rect fill="#c44" height="45" id="svg_24" rx="3" stroke="#a33" stroke-width="0.8" width="38" x="82" y="215"/>
  <text fill="white" font-family="Arial" font-size="10" font-weight="bold" id="svg_25" text-anchor="middle" x="101" y="234">16</text>
  <text fill="#fcc" font-family="Arial" font-size="7" id="svg_26" text-anchor="middle" x="101" y="252">MB L3</text>
  <rect fill="#c44" height="45" id="svg_27" rx="3" stroke="#a33" stroke-width="0.8" width="38" x="126" y="215"/>
  <text fill="white" font-family="Arial" font-size="10" font-weight="bold" id="svg_28" text-anchor="middle" x="145" y="234">16</text>
  <text fill="#fcc" font-family="Arial" font-size="7" id="svg_29" text-anchor="middle" x="145" y="252">MB L3</text>
  <rect fill="#c44" height="45" id="svg_30" rx="3" stroke="#a33" stroke-width="0.8" width="38" x="170" y="215"/>
  <text fill="white" font-family="Arial" font-size="10" font-weight="bold" id="svg_31" text-anchor="middle" x="189" y="234">16</text>
  <text fill="#fcc" font-family="Arial" font-size="7" id="svg_32" text-anchor="middle" x="189" y="252">MB L3</text>
  <rect fill="#c44" height="45" id="svg_33" rx="3" stroke="#a33" stroke-width="0.8" width="38" x="214" y="215"/>
  <text fill="white" font-family="Arial" font-size="10" font-weight="bold" id="svg_34" text-anchor="middle" x="233" y="234">16</text>
  <text fill="#fcc" font-family="Arial" font-size="7" id="svg_35" text-anchor="middle" x="233" y="252">MB L3</text>
  <rect fill="#c44" height="45" id="svg_36" rx="3" stroke="#a33" stroke-width="0.8" width="38" x="82" y="268"/>
  <text fill="white" font-family="Arial" font-size="10" font-weight="bold" id="svg_37" text-anchor="middle" x="101" y="287">16</text>
  <text fill="#fcc" font-family="Arial" font-size="7" id="svg_38" text-anchor="middle" x="101" y="305">MB L3</text>
  <rect fill="#c44" height="45" id="svg_39" rx="3" stroke="#a33" stroke-width="0.8" width="38" x="126" y="268"/>
  <text fill="white" font-family="Arial" font-size="10" font-weight="bold" id="svg_40" text-anchor="middle" x="145" y="287">16</text>
  <text fill="#fcc" font-family="Arial" font-size="7" id="svg_41" text-anchor="middle" x="145" y="305">MB L3</text>
  <rect fill="#c44" height="45" id="svg_42" rx="3" stroke="#a33" stroke-width="0.8" width="38" x="170" y="268"/>
  <text fill="white" font-family="Arial" font-size="10" font-weight="bold" id="svg_43" text-anchor="middle" x="189" y="287">16</text>
  <text fill="#fcc" font-family="Arial" font-size="7" id="svg_44" text-anchor="middle" x="189" y="305">MB L3</text>
  <rect fill="#c44" height="45" id="svg_45" rx="3" stroke="#a33" stroke-width="0.8" width="38" x="214" y="268"/>
  <text fill="white" font-family="Arial" font-size="10" font-weight="bold" id="svg_46" text-anchor="middle" x="233" y="287">16</text>
  <text fill="#fcc" font-family="Arial" font-size="7" id="svg_47" text-anchor="middle" x="233" y="305">MB L3</text>
  <rect fill="#8a8a8a" height="50" id="svg_48" rx="2" stroke="#666" stroke-width="0.5" width="14" x="45" y="210"/>
  <rect fill="#8a8a8a" height="50" id="svg_49" rx="2" stroke="#666" stroke-width="0.5" width="14" x="45" y="270"/>
  <text fill="#666" font-family="Arial" font-size="8" id="svg_50" x="42" y="208">DDR5</text>
  <rect fill="#d4c8ba" height="18" id="svg_51" rx="3" stroke="#a09585" stroke-width="0.8" width="45" x="275" y="210"/>
  <text fill="#555" font-family="Arial" font-size="8" id="svg_52" text-anchor="middle" x="297" y="223">HCL</text>
  <rect fill="#d4c8ba" height="18" id="svg_53" rx="3" stroke="#a09585" stroke-width="0.8" width="45" x="275" y="240"/>
  <text fill="#555" font-family="Arial" font-size="8" id="svg_54" text-anchor="middle" x="297" y="253">HCL</text>
  <rect fill="#d4c8ba" height="18" id="svg_55" rx="3" stroke="#a09585" stroke-width="0.8" width="45" x="275" y="300"/>
  <text fill="#555" font-family="Arial" font-size="8" id="svg_56" text-anchor="middle" x="297" y="313">HCL</text>
  <rect fill="#8a8a8a" height="55" id="svg_57" rx="2" stroke="#666" stroke-width="0.5" width="14" x="335" y="140"/>
  <rect fill="#8a8a8a" height="55" id="svg_58" rx="2" stroke="#666" stroke-width="0.5" width="14" x="355" y="140"/>
  <rect fill="#8a8a8a" height="55" id="svg_59" rx="2" stroke="#666" stroke-width="0.5" width="14" x="375" y="140"/>
  <rect fill="#8a8a8a" height="55" id="svg_60" rx="2" stroke="#666" stroke-width="0.5" width="14" x="395" y="140"/>
  <text fill="#666" font-family="Arial" font-size="8" id="svg_61" x="335" y="138">DDR5</text>
  <rect fill="#8a8a8a" height="55" id="svg_62" rx="2" stroke="#666" stroke-width="0.5" width="14" x="335" y="210"/>
  <rect fill="#8a8a8a" height="55" id="svg_63" rx="2" stroke="#666" stroke-width="0.5" width="14" x="355" y="210"/>
  <rect fill="#8a8a8a" height="55" id="svg_64" rx="2" stroke="#666" stroke-width="0.5" width="14" x="375" y="210"/>
  <rect fill="#8a8a8a" height="55" id="svg_65" rx="2" stroke="#666" stroke-width="0.5" width="14" x="395" y="210"/>
  <text fill="#666" font-family="Arial" font-size="8" id="svg_66" x="335" y="208">DDR5</text>
  <rect fill="#d9cfc3" height="125" id="svg_67" rx="5" stroke="#b0a090" stroke-width="1.2" width="190" x="70" y="350"/>
  <rect fill="#c44" height="45" id="svg_68" rx="3" stroke="#a33" stroke-width="0.8" width="38" x="82" y="360"/>
  <text fill="white" font-family="Arial" font-size="10" font-weight="bold" id="svg_69" text-anchor="middle" x="101" y="379">16</text>
  <text fill="#fcc" font-family="Arial" font-size="7" id="svg_70" text-anchor="middle" x="101" y="397">MB L3</text>
  <rect fill="#c44" height="45" id="svg_71" rx="3" stroke="#a33" stroke-width="0.8" width="38" x="126" y="360"/>
  <text fill="white" font-family="Arial" font-size="10" font-weight="bold" id="svg_72" text-anchor="middle" x="145" y="379">16</text>
  <text fill="#fcc" font-family="Arial" font-size="7" id="svg_73" text-anchor="middle" x="145" y="397">MB L3</text>
  <rect fill="#c44" height="45" id="svg_74" rx="3" stroke="#a33" stroke-width="0.8" width="38" x="170" y="360"/>
  <text fill="white" font-family="Arial" font-size="10" font-weight="bold" id="svg_75" text-anchor="middle" x="189" y="379">16</text>
  <text fill="#fcc" font-family="Arial" font-size="7" id="svg_76" text-anchor="middle" x="189" y="397">MB L3</text>
  <rect fill="#c44" height="45" id="svg_77" rx="3" stroke="#a33" stroke-width="0.8" width="38" x="214" y="360"/>
  <text fill="white" font-family="Arial" font-size="10" font-weight="bold" id="svg_78" text-anchor="middle" x="233" y="379">16</text>
  <text fill="#fcc" font-family="Arial" font-size="7" id="svg_79" text-anchor="middle" x="233" y="397">MB L3</text>
  <rect fill="#c44" height="45" id="svg_80" rx="3" stroke="#a33" stroke-width="0.8" width="38" x="82" y="413"/>
  <text fill="white" font-family="Arial" font-size="10" font-weight="bold" id="svg_81" text-anchor="middle" x="101" y="432">16</text>
  <text fill="#fcc" font-family="Arial" font-size="7" id="svg_82" text-anchor="middle" x="101" y="450">MB L3</text>
  <rect fill="#c44" height="45" id="svg_83" rx="3" stroke="#a33" stroke-width="0.8" width="38" x="126" y="413"/>
  <text fill="white" font-family="Arial" font-size="10" font-weight="bold" id="svg_84" text-anchor="middle" x="145" y="432">16</text>
  <text fill="#fcc" font-family="Arial" font-size="7" id="svg_85" text-anchor="middle" x="145" y="450">MB L3</text>
  <rect fill="#c44" height="45" id="svg_86" rx="3" stroke="#a33" stroke-width="0.8" width="38" x="170" y="413"/>
  <text fill="white" font-family="Arial" font-size="10" font-weight="bold" id="svg_87" text-anchor="middle" x="189" y="432">16</text>
  <text fill="#fcc" font-family="Arial" font-size="7" id="svg_88" text-anchor="middle" x="189" y="450">MB L3</text>
  <rect fill="#c44" height="45" id="svg_89" rx="3" stroke="#a33" stroke-width="0.8" width="38" x="214" y="413"/>
  <text fill="white" font-family="Arial" font-size="10" font-weight="bold" id="svg_90" text-anchor="middle" x="233" y="432">16</text>
  <text fill="#fcc" font-family="Arial" font-size="7" id="svg_91" text-anchor="middle" x="233" y="450">MB L3</text>
  <rect fill="#8a8a8a" height="50" id="svg_92" rx="2" stroke="#666" stroke-width="0.5" width="14" x="45" y="355"/>
  <rect fill="#8a8a8a" height="50" id="svg_93" rx="2" stroke="#666" stroke-width="0.5" width="14" x="45" y="415"/>
  <text fill="#666" font-family="Arial" font-size="8" id="svg_94" x="42" y="348">DDR5</text>
  <rect fill="#d4c8ba" height="18" id="svg_95" rx="3" stroke="#a09585" stroke-width="0.8" width="45" x="275" y="360"/>
  <text fill="#555" font-family="Arial" font-size="8" id="svg_96" text-anchor="middle" x="297" y="373">HCL</text>
  <rect fill="#8a8a8a" height="55" id="svg_97" rx="2" stroke="#666" stroke-width="0.5" width="14" x="335" y="350"/>
  <rect fill="#8a8a8a" height="55" id="svg_98" rx="2" stroke="#666" stroke-width="0.5" width="14" x="355" y="350"/>
  <rect fill="#8a8a8a" height="55" id="svg_99" rx="2" stroke="#666" stroke-width="0.5" width="14" x="375" y="350"/>
  <rect fill="#8a8a8a" height="55" id="svg_100" rx="2" stroke="#666" stroke-width="0.5" width="14" x="395" y="350"/>
  <text fill="#666" font-family="Arial" font-size="8" id="svg_101" x="335" y="348">DDR5</text>
  <rect fill="#8a8a8a" height="55" id="svg_102" rx="2" stroke="#666" stroke-width="0.5" width="14" x="335" y="415"/>
  <rect fill="#8a8a8a" height="55" id="svg_103" rx="2" stroke="#666" stroke-width="0.5" width="14" x="355" y="415"/>
  <rect fill="#8a8a8a" height="55" id="svg_104" rx="2" stroke="#666" stroke-width="0.5" width="14" x="375" y="415"/>
  <rect fill="#8a8a8a" height="55" id="svg_105" rx="2" stroke="#666" stroke-width="0.5" width="14" x="395" y="415"/>
  <text fill="#666" font-family="Arial" font-size="8" id="svg_106" x="335" y="413">DDR5</text>
  <rect fill="#d4c8ba" height="22" id="svg_107" rx="3" stroke="#a09585" width="90" x="50" y="490"/>
  <text fill="#333" font-family="Arial" font-size="10" font-weight="bold" id="svg_108" text-anchor="middle" x="95" y="506">PCIe 5.0</text>
  <rect fill="#c4b8aa" height="22" id="svg_109" rx="3" stroke="#a09585" width="55" x="155" y="490"/>
  <text fill="#333" font-family="Arial" font-size="10" font-weight="bold" id="svg_110" text-anchor="middle" x="182" y="506">IOD1</text>
  <rect fill="#c4b8aa" height="22" id="svg_111" rx="3" stroke="#a09585" width="55" x="225" y="490"/>
  <text fill="#333" font-family="Arial" font-size="10" font-weight="bold" id="svg_112" text-anchor="middle" x="252" y="506">xHCL 3</text>
  <rect fill="#c4b8aa" height="22" id="svg_113" rx="3" stroke="#a09585" width="45" x="295" y="490"/>
  <text fill="#333" font-family="Arial" font-size="9" font-weight="bold" id="svg_114" text-anchor="middle" x="317" y="506">USB</text>
  <rect fill="#c4b8aa" height="22" id="svg_115" rx="3" stroke="#a09585" width="45" x="355" y="490"/>
  <text fill="#333" font-family="Arial" font-size="9" font-weight="bold" id="svg_116" text-anchor="middle" x="377" y="506">SATA</text>
  <rect fill="#d4c8ba" height="20" id="svg_117" rx="3" stroke="#a09585" width="55" x="50" y="520"/>
  <text fill="#333" font-family="Arial" font-size="8" font-weight="bold" id="svg_118" text-anchor="middle" x="77" y="534">CXL 2.0</text>
  <rect fill="#c4b8aa" height="20" id="svg_119" rx="3" stroke="#a09585" width="45" x="120" y="520"/>
  <text fill="#333" font-family="Arial" font-size="8" font-weight="bold" id="svg_120" text-anchor="middle" x="142" y="534">IOD2</text>
  <rect fill="#c4b8aa" height="20" id="svg_121" rx="3" stroke="#a09585" width="55" x="180" y="520"/>
  <text fill="#333" font-family="Arial" font-size="8" font-weight="bold" id="svg_122" text-anchor="middle" x="207" y="534">10GbE</text>
  <rect fill="#c4b8aa" height="20" id="svg_123" rx="3" stroke="#a09585" width="55" x="250" y="520"/>
  <text fill="#333" font-family="Arial" font-size="8" font-weight="bold" id="svg_124" text-anchor="middle" x="277" y="534">10GbE</text>
  <text fill="#c44" font-family="Microsoft YaHei, SimHei, Arial, sans-serif" font-size="22" font-weight="bold" id="svg_125" x="500" y="100">高速IO Die</text>
  <text fill="#333" font-family="Microsoft YaHei, SimHei, Arial, sans-serif" font-size="15" id="svg_126" x="520" y="130">• 支持64-lane PCIe5.0</text>
  <text fill="#333" font-family="Microsoft YaHei, SimHei, Arial, sans-serif" font-size="15" id="svg_127" x="520" y="155">• 支持2组CXL2.0</text>
  <text fill="#333" font-family="Microsoft YaHei, SimHei, Arial, sans-serif" font-size="15" id="svg_128" x="520" y="180">• 支持最多4组xHCL，2/4路互联</text>
  <text fill="#333" font-family="Microsoft YaHei, SimHei, Arial, sans-serif" font-size="15" id="svg_129" x="520" y="205">• CCP加解密引擎</text>
  <text fill="#c44" font-family="Microsoft YaHei, SimHei, Arial, sans-serif" font-size="22" font-weight="bold" id="svg_130" x="500" y="260">计算Die</text>
  <text fill="#333" font-family="Microsoft YaHei, SimHei, Arial, sans-serif" font-size="15" id="svg_131" x="520" y="290">• 16×全新内核</text>
  <text fill="#333" font-family="Microsoft YaHei, SimHei, Arial, sans-serif" font-size="15" id="svg_132" x="520" y="315">• 海光向量计算指令集</text>
  <text fill="#333" font-family="Microsoft YaHei, SimHei, Arial, sans-serif" font-size="15" id="svg_133" x="520" y="340">• 支持SMT4</text>
  <text fill="#333" font-family="Microsoft YaHei, SimHei, Arial, sans-serif" font-size="15" id="svg_134" x="520" y="365">• 8核共享16MB L3</text>
  <text fill="#333" font-family="Microsoft YaHei, SimHei, Arial, sans-serif" font-size="15" id="svg_135" x="520" y="390">• 2通道DDR5，速率提升至6400</text>
  <text fill="#c44" font-family="Microsoft YaHei, SimHei, Arial, sans-serif" font-size="22" font-weight="bold" id="svg_136" x="500" y="445">低速IO Die</text>
  <text fill="#333" font-family="Microsoft YaHei, SimHei, Arial, sans-serif" font-size="15" id="svg_137" x="520" y="475">• 支持9-lane PCIe4.0</text>
  <text fill="#333" font-family="Microsoft YaHei, SimHei, Arial, sans-serif" font-size="15" id="svg_138" x="520" y="500">• 支持4×USB3.1/USB2.0+4×USB2.0</text>
  <text fill="#333" font-family="Microsoft YaHei, SimHei, Arial, sans-serif" font-size="15" id="svg_139" x="520" y="525">• 支持1组10GbE+2组1GbE MAC</text>
  <text fill="#333" font-family="Microsoft YaHei, SimHei, Arial, sans-serif" font-size="15" id="svg_140" x="520" y="550">• 支持8组SATA</text>
  <text fill="#333" font-family="Microsoft YaHei, SimHei, Arial, sans-serif" font-size="16" id="svg_141" x="920" y="78">加入QoS、内存镜像等功能</text>
  <rect fill="url(#chip-bg)" height="480" id="svg_142" rx="8" stroke="#a09080" stroke-width="2" width="470" x="880" y="95"/>
  <rect fill="#c4b8aa" height="20" id="svg_143" rx="3" stroke="#a09585" width="55" x="945" y="108"/>
  <text fill="#333" font-family="Arial" font-size="9" font-weight="bold" id="svg_144" text-anchor="middle" x="972" y="122">IOD1</text>
  <rect fill="#c4b8aa" height="20" id="svg_145" rx="3" stroke="#a09585" width="45" x="1015" y="108"/>
  <text fill="#333" font-family="Arial" font-size="9" font-weight="bold" id="svg_146" text-anchor="middle" x="1037" y="122">CCP</text>
  <rect fill="#d4c8ba" height="20" id="svg_147" rx="3" stroke="#a09585" width="90" x="1075" y="108"/>
  <text fill="#333" font-family="Arial" font-size="9" id="svg_148" text-anchor="middle" x="1120" y="122">PCIe 5.0</text>
  <rect fill="#8a8a8a" height="50" id="svg_149" rx="2" stroke="#666" stroke-width="0.5" width="14" x="1200" y="108"/>
  <rect fill="#8a8a8a" height="50" id="svg_150" rx="2" stroke="#666" stroke-width="0.5" width="14" x="1218" y="108"/>
  <rect fill="#8a8a8a" height="50" id="svg_151" rx="2" stroke="#666" stroke-width="0.5" width="14" x="1236" y="108"/>
  <rect fill="#8a8a8a" height="50" id="svg_152" rx="2" stroke="#666" stroke-width="0.5" width="14" x="1254" y="108"/>
  <text fill="#666" font-family="Arial" font-size="7" id="svg_153" x="1200" y="106">DDR5</text>
  <rect fill="#d4c8ba" height="16" id="svg_154" rx="3" stroke="#a09585" stroke-width="0.8" width="45" x="945" y="135"/>
  <text fill="#555" font-family="Arial" font-size="7" id="svg_155" text-anchor="middle" x="967" y="147">HCL</text>
  <rect fill="#d9cfc3" height="120" id="svg_156" rx="5" stroke="#b0a090" stroke-width="1.2" width="190" x="930" y="165"/>
  <rect fill="#c44" height="42" id="svg_157" rx="3" stroke="#a33" stroke-width="0.8" width="38" x="942" y="175"/>
  <text fill="white" font-family="Arial" font-size="9" font-weight="bold" id="svg_158" text-anchor="middle" x="961" y="194">16</text>
  <text fill="#fcc" font-family="Arial" font-size="6" id="svg_159" text-anchor="middle" x="961" y="210">MB L3</text>
  <rect fill="#c44" height="42" id="svg_160" rx="3" stroke="#a33" stroke-width="0.8" width="38" x="986" y="175"/>
  <text fill="white" font-family="Arial" font-size="9" font-weight="bold" id="svg_161" text-anchor="middle" x="1005" y="194">16</text>
  <text fill="#fcc" font-family="Arial" font-size="6" id="svg_162" text-anchor="middle" x="1005" y="210">MB L3</text>
  <rect fill="#c44" height="42" id="svg_163" rx="3" stroke="#a33" stroke-width="0.8" width="38" x="1030" y="175"/>
  <text fill="white" font-family="Arial" font-size="9" font-weight="bold" id="svg_164" text-anchor="middle" x="1049" y="194">16</text>
  <text fill="#fcc" font-family="Arial" font-size="6" id="svg_165" text-anchor="middle" x="1049" y="210">MB L3</text>
  <rect fill="#c44" height="42" id="svg_166" rx="3" stroke="#a33" stroke-width="0.8" width="38" x="1074" y="175"/>
  <text fill="white" font-family="Arial" font-size="9" font-weight="bold" id="svg_167" text-anchor="middle" x="1093" y="194">16</text>
  <text fill="#fcc" font-family="Arial" font-size="6" id="svg_168" text-anchor="middle" x="1093" y="210">MB L3</text>
  <rect fill="#c44" height="42" id="svg_169" rx="3" stroke="#a33" stroke-width="0.8" width="38" x="942" y="224"/>
  <text fill="white" font-family="Arial" font-size="9" font-weight="bold" id="svg_170" text-anchor="middle" x="961" y="243">16</text>
  <text fill="#fcc" font-family="Arial" font-size="6" id="svg_171" text-anchor="middle" x="961" y="259">MB L3</text>
  <rect fill="#c44" height="42" id="svg_172" rx="3" stroke="#a33" stroke-width="0.8" width="38" x="986" y="224"/>
  <text fill="white" font-family="Arial" font-size="9" font-weight="bold" id="svg_173" text-anchor="middle" x="1005" y="243">16</text>
  <text fill="#fcc" font-family="Arial" font-size="6" id="svg_174" text-anchor="middle" x="1005" y="259">MB L3</text>
  <rect fill="#c44" height="42" id="svg_175" rx="3" stroke="#a33" stroke-width="0.8" width="38" x="1030" y="224"/>
  <text fill="white" font-family="Arial" font-size="9" font-weight="bold" id="svg_176" text-anchor="middle" x="1049" y="243">16</text>
  <text fill="#fcc" font-family="Arial" font-size="6" id="svg_177" text-anchor="middle" x="1049" y="259">MB L3</text>
  <rect fill="#c44" height="42" id="svg_178" rx="3" stroke="#a33" stroke-width="0.8" width="38" x="1074" y="224"/>
  <text fill="white" font-family="Arial" font-size="9" font-weight="bold" id="svg_179" text-anchor="middle" x="1093" y="243">16</text>
  <text fill="#fcc" font-family="Arial" font-size="6" id="svg_180" text-anchor="middle" x="1093" y="259">MB L3</text>
  <rect fill="#d4c8ba" height="16" id="svg_181" rx="3" stroke="#a09585" stroke-width="0.8" width="45" x="1130" y="175"/>
  <text fill="#555" font-family="Arial" font-size="7" id="svg_182" text-anchor="middle" x="1152" y="187">HCL</text>
  <rect fill="#d4c8ba" height="16" id="svg_183" rx="3" stroke="#a09585" stroke-width="0.8" width="45" x="1130" y="205"/>
  <text fill="#555" font-family="Arial" font-size="7" id="svg_184" text-anchor="middle" x="1152" y="217">HCL</text>
  <rect fill="#8a8a8a" height="50" id="svg_185" rx="2" stroke="#666" stroke-width="0.5" width="14" x="1200" y="170"/>
  <rect fill="#8a8a8a" height="50" id="svg_186" rx="2" stroke="#666" stroke-width="0.5" width="14" x="1218" y="170"/>
  <rect fill="#8a8a8a" height="50" id="svg_187" rx="2" stroke="#666" stroke-width="0.5" width="14" x="1236" y="170"/>
  <rect fill="#8a8a8a" height="50" id="svg_188" rx="2" stroke="#666" stroke-width="0.5" width="14" x="1254" y="170"/>
  <text fill="#666" font-family="Arial" font-size="7" id="svg_189" x="1200" y="168">DDR5</text>
  <rect fill="#8a8a8a" height="50" id="svg_190" rx="2" stroke="#666" stroke-width="0.5" width="14" x="1200" y="230"/>
  <rect fill="#8a8a8a" height="50" id="svg_191" rx="2" stroke="#666" stroke-width="0.5" width="14" x="1218" y="230"/>
  <rect fill="#8a8a8a" height="50" id="svg_192" rx="2" stroke="#666" stroke-width="0.5" width="14" x="1236" y="230"/>
  <rect fill="#8a8a8a" height="50" id="svg_193" rx="2" stroke="#666" stroke-width="0.5" width="14" x="1254" y="230"/>
  <text fill="#666" font-family="Arial" font-size="7" id="svg_194" x="1200" y="228">DDR5</text>
  <rect fill="#8a8a8a" height="50" id="svg_195" rx="2" stroke="#666" stroke-width="0.5" width="14" x="895" y="175"/>
  <rect fill="#8a8a8a" height="50" id="svg_196" rx="2" stroke="#666" stroke-width="0.5" width="14" x="895" y="235"/>
  <text fill="#666" font-family="Arial" font-size="7" id="svg_197" x="893" y="173">DDR5</text>
  <rect fill="#d9cfc3" height="120" id="svg_198" rx="5" stroke="#b0a090" stroke-width="1.2" width="190" x="930" y="300"/>
  <rect fill="#c44" height="42" id="svg_199" rx="3" stroke="#a33" stroke-width="0.8" width="38" x="942" y="310"/>
  <text fill="white" font-family="Arial" font-size="9" font-weight="bold" id="svg_200" text-anchor="middle" x="961" y="329">16</text>
  <text fill="#fcc" font-family="Arial" font-size="6" id="svg_201" text-anchor="middle" x="961" y="345">MB L3</text>
  <rect fill="#c44" height="42" id="svg_202" rx="3" stroke="#a33" stroke-width="0.8" width="38" x="986" y="310"/>
  <text fill="white" font-family="Arial" font-size="9" font-weight="bold" id="svg_203" text-anchor="middle" x="1005" y="329">16</text>
  <text fill="#fcc" font-family="Arial" font-size="6" id="svg_204" text-anchor="middle" x="1005" y="345">MB L3</text>
  <rect fill="#c44" height="42" id="svg_205" rx="3" stroke="#a33" stroke-width="0.8" width="38" x="1030" y="310"/>
  <text fill="white" font-family="Arial" font-size="9" font-weight="bold" id="svg_206" text-anchor="middle" x="1049" y="329">16</text>
  <text fill="#fcc" font-family="Arial" font-size="6" id="svg_207" text-anchor="middle" x="1049" y="345">MB L3</text>
  <rect fill="#c44" height="42" id="svg_208" rx="3" stroke="#a33" stroke-width="0.8" width="38" x="1074" y="310"/>
  <text fill="white" font-family="Arial" font-size="9" font-weight="bold" id="svg_209" text-anchor="middle" x="1093" y="329">16</text>
  <text fill="#fcc" font-family="Arial" font-size="6" id="svg_210" text-anchor="middle" x="1093" y="345">MB L3</text>
  <rect fill="#c44" height="42" id="svg_211" rx="3" stroke="#a33" stroke-width="0.8" width="38" x="942" y="359"/>
  <text fill="white" font-family="Arial" font-size="9" font-weight="bold" id="svg_212" text-anchor="middle" x="961" y="378">16</text>
  <text fill="#fcc" font-family="Arial" font-size="6" id="svg_213" text-anchor="middle" x="961" y="394">MB L3</text>
  <rect fill="#c44" height="42" id="svg_214" rx="3" stroke="#a33" stroke-width="0.8" width="38" x="986" y="359"/>
  <text fill="white" font-family="Arial" font-size="9" font-weight="bold" id="svg_215" text-anchor="middle" x="1005" y="378">16</text>
  <text fill="#fcc" font-family="Arial" font-size="6" id="svg_216" text-anchor="middle" x="1005" y="394">MB L3</text>
  <rect fill="#c44" height="42" id="svg_217" rx="3" stroke="#a33" stroke-width="0.8" width="38" x="1030" y="359"/>
  <text fill="white" font-family="Arial" font-size="9" font-weight="bold" id="svg_218" text-anchor="middle" x="1049" y="378">16</text>
  <text fill="#fcc" font-family="Arial" font-size="6" id="svg_219" text-anchor="middle" x="1049" y="394">MB L3</text>
  <rect fill="#c44" height="42" id="svg_220" rx="3" stroke="#a33" stroke-width="0.8" width="38" x="1074" y="359"/>
  <text fill="white" font-family="Arial" font-size="9" font-weight="bold" id="svg_221" text-anchor="middle" x="1093" y="378">16</text>
  <text fill="#fcc" font-family="Arial" font-size="6" id="svg_222" text-anchor="middle" x="1093" y="394">MB L3</text>
  <rect fill="#d4c8ba" height="16" id="svg_223" rx="3" stroke="#a09585" stroke-width="0.8" width="45" x="1130" y="310"/>
  <text fill="#555" font-family="Arial" font-size="7" id="svg_224" text-anchor="middle" x="1152" y="322">HCL</text>
  <rect fill="#8a8a8a" height="50" id="svg_225" rx="2" stroke="#666" stroke-width="0.5" width="14" x="1200" y="300"/>
  <rect fill="#8a8a8a" height="50" id="svg_226" rx="2" stroke="#666" stroke-width="0.5" width="14" x="1218" y="300"/>
  <rect fill="#8a8a8a" height="50" id="svg_227" rx="2" stroke="#666" stroke-width="0.5" width="14" x="1236" y="300"/>
  <rect fill="#8a8a8a" height="50" id="svg_228" rx="2" stroke="#666" stroke-width="0.5" width="14" x="1254" y="300"/>
  <rect fill="#8a8a8a" height="50" id="svg_229" rx="2" stroke="#666" stroke-width="0.5" width="14" x="1200" y="360"/>
  <rect fill="#8a8a8a" height="50" id="svg_230" rx="2" stroke="#666" stroke-width="0.5" width="14" x="1218" y="360"/>
  <rect fill="#8a8a8a" height="50" id="svg_231" rx="2" stroke="#666" stroke-width="0.5" width="14" x="1236" y="360"/>
  <rect fill="#8a8a8a" height="50" id="svg_232" rx="2" stroke="#666" stroke-width="0.5" width="14" x="1254" y="360"/>
  <text fill="#666" font-family="Arial" font-size="7" id="svg_233" x="1200" y="298">DDR5</text>
  <text fill="#666" font-family="Arial" font-size="7" id="svg_234" x="1200" y="358">DDR5</text>
  <rect fill="#8a8a8a" height="50" id="svg_235" rx="2" stroke="#666" stroke-width="0.5" width="14" x="895" y="310"/>
  <rect fill="#8a8a8a" height="50" id="svg_236" rx="2" stroke="#666" stroke-width="0.5" width="14" x="895" y="370"/>
  <text fill="#666" font-family="Arial" font-size="7" id="svg_237" x="893" y="308">DDR5</text>
  <rect fill="#d4c8ba" height="18" id="svg_238" rx="3" stroke="#a09585" stroke-width="0.8" width="60" x="895" y="440"/>
  <text fill="#333" font-family="Arial" font-size="7" font-weight="bold" id="svg_239" text-anchor="middle" x="925" y="453">PCIe 5.0</text>
  <rect fill="#c4b8aa" height="18" id="svg_240" rx="3" stroke="#a09585" stroke-width="0.8" width="40" x="965" y="440"/>
  <text fill="#333" font-family="Arial" font-size="7" font-weight="bold" id="svg_241" text-anchor="middle" x="985" y="453">IOD1</text>
  <rect fill="#c4b8aa" height="18" id="svg_242" rx="3" stroke="#a09585" stroke-width="0.8" width="50" x="1015" y="440"/>
  <text fill="#333" font-family="Arial" font-size="7" font-weight="bold" id="svg_243" text-anchor="middle" x="1040" y="453">xHCL 3</text>
  <rect fill="#c4b8aa" height="18" id="svg_244" rx="3" stroke="#a09585" stroke-width="0.8" width="35" x="1075" y="440"/>
  <text fill="#333" font-family="Arial" font-size="7" font-weight="bold" id="svg_245" text-anchor="middle" x="1092" y="453">USB</text>
  <rect fill="#c4b8aa" height="18" id="svg_246" rx="3" stroke="#a09585" stroke-width="0.8" width="35" x="1120" y="440"/>
  <text fill="#333" font-family="Arial" font-size="7" font-weight="bold" id="svg_247" text-anchor="middle" x="1137" y="453">SATA</text>
  <rect fill="#c4b8aa" height="18" id="svg_248" rx="3" stroke="#a09585" stroke-width="0.8" width="40" x="1165" y="440"/>
  <text fill="#333" font-family="Arial" font-size="7" font-weight="bold" id="svg_249" text-anchor="middle" x="1185" y="453">IOD2</text>
  <rect fill="#c4b8aa" height="18" id="svg_250" rx="3" stroke="#a09585" stroke-width="0.8" width="42" x="1215" y="440"/>
  <text fill="#333" font-family="Arial" font-size="7" font-weight="bold" id="svg_251" text-anchor="middle" x="1236" y="453">10GbE</text>
  <rect fill="#d4c8ba" height="16" id="svg_252" rx="3" stroke="#a09585" stroke-width="0.8" width="55" x="895" y="465"/>
  <text fill="#333" font-family="Arial" font-size="7" font-weight="bold" id="svg_253" text-anchor="middle" x="922" y="477">CXL 2.0</text>
  <rect fill="#c4b8aa" height="16" id="svg_254" rx="3" stroke="#a09585" stroke-width="0.8" width="40" x="960" y="465"/>
  <text fill="#333" font-family="Arial" font-size="7" font-weight="bold" id="svg_255" text-anchor="middle" x="980" y="477">CCP</text>
  <rect fill="#c4b8aa" height="18" id="svg_256" rx="3" stroke="#a09585" stroke-width="0.8" width="40" x="1270" y="440"/>
  <text fill="#333" font-family="Arial" font-size="6" font-weight="bold" id="svg_257" text-anchor="middle" x="1290" y="453">PCIe 5.0</text>
 </g>
</svg>