<svg width="512" height="512" xmlns="http://www.w3.org/2000/svg" xmlns:svg="http://www.w3.org/2000/svg">
 <!-- Created with SVG-edit - https://github.com/SVG-Edit/svgedit-->
 <g class="layer">
  <title>Layer 1</title>
  <rect fill="#f0f0f0" height="50" id="svg_1" stroke="#000000" stroke-width="2" width="120" x="450" y="20"/>
  <text fill="#000000" font-family="Arial" font-size="14" id="svg_2" text-anchor="middle" x="510" y="48"/>
  <line id="svg_3" stroke="#000000" stroke-width="2" x1="510" x2="252" y1="70" y2="110"/>
  <line id="svg_4" stroke="#000000" stroke-width="2" x1="510" x2="507" y1="70" y2="110"/>
  <line id="svg_5" stroke="#000000" stroke-width="2" x1="510" x2="765" y1="70" y2="110"/>
  <line id="svg_6" stroke="#000000" stroke-width="2" x1="510" x2="988" y1="70" y2="110"/>
  <rect fill="#e8e8e8" height="40" id="svg_7" stroke="#000000" stroke-width="2" width="120" x="192" y="110"/>
  <text fill="#000000" font-family="Arial" font-size="13" id="svg_8" text-anchor="middle" x="252" y="135"/>
  <rect fill="#e8e8e8" height="40" id="svg_9" stroke="#000000" stroke-width="2" width="120" x="447" y="110"/>
  <text fill="#000000" font-family="Arial" font-size="13" id="svg_10" text-anchor="middle" x="507" y="135"/>
  <rect fill="#e8e8e8" height="40" id="svg_11" stroke="#000000" stroke-width="2" width="120" x="705" y="110"/>
  <text fill="#000000" font-family="Arial" font-size="13" id="svg_12" text-anchor="middle" x="765" y="135"/>
  <rect fill="#e8e8e8" height="40" id="svg_13" stroke="#000000" stroke-width="2" width="120" x="928" y="110"/>
  <text fill="#000000" font-family="Arial" font-size="13" id="svg_14" text-anchor="middle" x="988" y="135"/>
  <line id="svg_15" stroke="#000000" stroke-width="2" x1="59" x2="59" y1="150" y2="180"/>
  <line id="svg_16" stroke="#000000" stroke-width="2" x1="124" x2="124" y1="150" y2="180"/>
  <line id="svg_17" stroke="#000000" stroke-width="2" x1="183" x2="183" y1="150" y2="180"/>
  <line id="svg_18" stroke="#000000" stroke-width="2" x1="236" x2="236" y1="150" y2="180"/>
  <line id="svg_19" stroke="#000000" stroke-width="2" x1="289" x2="289" y1="150" y2="180"/>
  <line id="svg_20" stroke="#000000" stroke-width="2" x1="342" x2="342" y1="150" y2="180"/>
  <line id="svg_21" stroke="#000000" stroke-width="2" x1="416" x2="416" y1="150" y2="180"/>
  <line id="svg_22" stroke="#000000" stroke-width="2" x1="469" x2="469" y1="150" y2="180"/>
  <line id="svg_23" stroke="#000000" stroke-width="2" x1="522" x2="522" y1="150" y2="180"/>
  <line id="svg_24" stroke="#000000" stroke-width="2" x1="575" x2="575" y1="150" y2="180"/>
  <line id="svg_25" stroke="#000000" stroke-width="2" x1="693" x2="693" y1="150" y2="180"/>
  <line id="svg_26" stroke="#000000" stroke-width="2" x1="746" x2="746" y1="150" y2="180"/>
  <line id="svg_27" stroke="#000000" stroke-width="2" x1="799" x2="799" y1="150" y2="180"/>
  <line id="svg_28" stroke="#000000" stroke-width="2" x1="852" x2="852" y1="150" y2="180"/>
  <line id="svg_29" stroke="#000000" stroke-width="2" x1="926" x2="926" y1="150" y2="180"/>
  <line id="svg_30" stroke="#000000" stroke-width="2" x1="979" x2="979" y1="150" y2="180"/>
  <line id="svg_31" stroke="#000000" stroke-width="2" x1="1032" x2="1032" y1="150" y2="180"/>
  <rect fill="none" height="230" id="svg_32" stroke="#000000" stroke-width="2" width="65" x="27" y="30"/>
  <text fill="#000000" font-family="Arial" font-size="14" id="svg_33" text-anchor="middle" x="59" y="150"/>
  <text fill="#000000" font-family="Arial" font-size="14" id="svg_34" text-anchor="middle" x="59" y="165"/>
  <rect fill="none" height="230" id="svg_35" stroke="#000000" stroke-width="2" width="65" x="92" y="30"/>
  <text fill="#000000" font-family="Arial" font-size="14" id="svg_36" text-anchor="middle" x="124" y="150"/>
  <text fill="#000000" font-family="Arial" font-size="14" id="svg_37" text-anchor="middle" x="124" y="165"/>
  <rect fill="white" height="80" id="svg_38" stroke="#000000" stroke-width="1.5" width="53" x="157" y="180"/>
  <text fill="#000000" font-family="Arial" font-size="12" id="svg_39" text-anchor="middle" x="183" y="215"/>
  <text fill="#000000" font-family="Arial" font-size="12" id="svg_40" text-anchor="middle" x="183" y="230"/>
  <rect fill="white" height="80" id="svg_41" stroke="#000000" stroke-width="1.5" width="53" x="210" y="180"/>
  <text fill="#000000" font-family="Arial" font-size="12" id="svg_42" text-anchor="middle" x="236" y="215"/>
  <text fill="#000000" font-family="Arial" font-size="12" id="svg_43" text-anchor="middle" x="236" y="230"/>
  <rect fill="white" height="80" id="svg_44" stroke="#000000" stroke-width="1.5" width="53" x="263" y="180"/>
  <text fill="#000000" font-family="Arial" font-size="12" id="svg_45" text-anchor="middle" x="289" y="215"/>
  <text fill="#000000" font-family="Arial" font-size="12" id="svg_46" text-anchor="middle" x="289" y="230"/>
  <rect fill="white" height="80" id="svg_47" stroke="#000000" stroke-width="1.5" width="53" x="316" y="180"/>
  <text fill="#000000" font-family="Arial" font-size="12" id="svg_48" text-anchor="middle" x="342" y="215"/>
  <text fill="#000000" font-family="Arial" font-size="12" id="svg_49" text-anchor="middle" x="342" y="230"/>
  <rect fill="white" height="80" id="svg_50" stroke="#000000" stroke-width="1.5" width="53" x="390" y="180"/>
  <text fill="#000000" font-family="Arial" font-size="12" id="svg_51" text-anchor="middle" x="416" y="215"/>
  <text fill="#000000" font-family="Arial" font-size="12" id="svg_52" text-anchor="middle" x="416" y="230"/>
  <rect fill="white" height="80" id="svg_53" stroke="#000000" stroke-width="1.5" width="53" x="443" y="180"/>
  <text fill="#000000" font-family="Arial" font-size="12" id="svg_54" text-anchor="middle" x="469" y="215"/>
  <text fill="#000000" font-family="Arial" font-size="12" id="svg_55" text-anchor="middle" x="469" y="230"/>
  <rect fill="white" height="80" id="svg_56" stroke="#000000" stroke-width="1.5" width="53" x="496" y="180"/>
  <text fill="#000000" font-family="Arial" font-size="12" id="svg_57" text-anchor="middle" x="522" y="215"/>
  <text fill="#000000" font-family="Arial" font-size="12" id="svg_58" text-anchor="middle" x="522" y="230"/>
  <rect fill="white" height="80" id="svg_59" stroke="#000000" stroke-width="1.5" width="53" x="549" y="180"/>
  <text fill="#000000" font-family="Arial" font-size="12" id="svg_60" text-anchor="middle" x="575" y="215"/>
  <text fill="#000000" font-family="Arial" font-size="12" id="svg_61" text-anchor="middle" x="575" y="230"/>
  <rect fill="white" height="80" id="svg_62" stroke="#000000" stroke-width="1.5" width="53" x="667" y="180"/>
  <text fill="#000000" font-family="Arial" font-size="12" id="svg_63" text-anchor="middle" x="693" y="215"/>
  <text fill="#000000" font-family="Arial" font-size="12" id="svg_64" text-anchor="middle" x="693" y="230"/>
  <rect fill="white" height="80" id="svg_65" stroke="#000000" stroke-width="1.5" width="53" x="720" y="180"/>
  <text fill="#000000" font-family="Arial" font-size="12" id="svg_66" text-anchor="middle" x="746" y="215"/>
  <text fill="#000000" font-family="Arial" font-size="12" id="svg_67" text-anchor="middle" x="746" y="230"/>
  <rect fill="white" height="80" id="svg_68" stroke="#000000" stroke-width="1.5" width="53" x="773" y="180"/>
  <text fill="#000000" font-family="Arial" font-size="12" id="svg_69" text-anchor="middle" x="799" y="215"/>
  <text fill="#000000" font-family="Arial" font-size="12" id="svg_70" text-anchor="middle" x="799" y="230"/>
  <rect fill="white" height="80" id="svg_71" stroke="#000000" stroke-width="1.5" width="53" x="826" y="180"/>
  <text fill="#000000" font-family="Arial" font-size="12" id="svg_72" text-anchor="middle" x="852" y="215"/>
  <text fill="#000000" font-family="Arial" font-size="12" id="svg_73" text-anchor="middle" x="852" y="230"/>
  <rect fill="white" height="80" id="svg_74" stroke="#000000" stroke-width="1.5" width="53" x="900" y="180"/>
  <text fill="#000000" font-family="Arial" font-size="12" id="svg_75" text-anchor="middle" x="926" y="215"/>
  <text fill="#000000" font-family="Arial" font-size="12" id="svg_76" text-anchor="middle" x="926" y="230"/>
  <rect fill="white" height="80" id="svg_77" stroke="#000000" stroke-width="1.5" width="53" x="953" y="180"/>
  <text fill="#000000" font-family="Arial" font-size="12" id="svg_78" text-anchor="middle" x="979" y="215"/>
  <text fill="#000000" font-family="Arial" font-size="12" id="svg_79" text-anchor="middle" x="979" y="230"/>
  <rect fill="white" height="80" id="svg_80" stroke="#000000" stroke-width="1.5" width="53" x="1006" y="180"/>
  <text fill="#000000" font-family="Arial" font-size="12" id="svg_81" text-anchor="middle" x="1032" y="215"/>
  <text fill="#000000" font-family="Arial" font-size="12" id="svg_82" text-anchor="middle" x="1032" y="230"/>
 </g>
</svg>